<svg width="86" height="86" viewBox="0 0 86 86" fill="none" xmlns="http://www.w3.org/2000/svg">
<g clip-path="url(#clip0_224_2)">
<path d="M43.5093 15C31.611 15 28.1311 15.0123 27.4546 15.0683C25.0129 15.2714 23.4935 15.656 21.8383 16.4802C20.5625 17.114 19.5564 17.8485 18.5635 18.878C16.7551 20.7557 15.6592 23.0658 15.2624 25.8115C15.0696 27.1446 15.0134 27.4165 15.0022 34.2255C14.9979 36.4953 15.0022 39.482 15.0022 43.4889C15.0022 55.3808 15.0151 58.8581 15.0722 59.5335C15.2695 61.9101 15.642 63.4054 16.4311 65.041C17.9392 68.1719 20.8195 70.5223 24.2126 71.3993C25.3873 71.7018 26.6849 71.8685 28.3506 71.9474C29.0566 71.9779 36.2503 71.9999 43.4484 71.9999C50.6466 71.9999 57.8449 71.9913 58.533 71.9562C60.462 71.8653 61.582 71.7149 62.8205 71.3948C66.2354 70.5136 69.0629 68.1982 70.6018 65.0236C71.3754 63.4272 71.7677 61.875 71.9452 59.6226C71.984 59.1315 72.0001 51.3011 72.0001 43.4813C72.0001 35.6602 71.9825 27.8445 71.9441 27.3534C71.7643 25.0644 71.3719 23.5251 70.5731 21.8986C69.9178 20.5668 69.19 19.5721 68.1336 18.5553C66.2481 16.7541 63.9423 15.6577 61.1945 15.2613C59.8631 15.0687 59.5981 15.0118 52.7855 15H43.5093Z" fill="url(#paint0_radial_224_2)"/>
<path d="M43.5093 15C31.611 15 28.1311 15.0123 27.4546 15.0683C25.0129 15.2714 23.4935 15.656 21.8383 16.4802C20.5625 17.114 19.5564 17.8485 18.5635 18.878C16.7551 20.7557 15.6592 23.0658 15.2624 25.8115C15.0696 27.1446 15.0134 27.4165 15.0022 34.2255C14.9979 36.4953 15.0022 39.482 15.0022 43.4889C15.0022 55.3808 15.0151 58.8581 15.0722 59.5335C15.2695 61.9101 15.642 63.4054 16.4311 65.041C17.9392 68.1719 20.8195 70.5223 24.2126 71.3993C25.3873 71.7018 26.6849 71.8685 28.3506 71.9474C29.0566 71.9779 36.2503 71.9999 43.4484 71.9999C50.6466 71.9999 57.8449 71.9913 58.533 71.9562C60.462 71.8653 61.582 71.7149 62.8205 71.3948C66.2354 70.5136 69.0629 68.1982 70.6018 65.0236C71.3754 63.4272 71.7677 61.875 71.9452 59.6226C71.984 59.1315 72.0001 51.3011 72.0001 43.4813C72.0001 35.6602 71.9825 27.8445 71.9441 27.3534C71.7643 25.0644 71.3719 23.5251 70.5731 21.8986C69.9178 20.5668 69.19 19.5721 68.1336 18.5553C66.2481 16.7541 63.9423 15.6577 61.1945 15.2613C59.8631 15.0687 59.5981 15.0118 52.7855 15H43.5093Z" fill="url(#paint1_radial_224_2)"/>
<path d="M43.5093 15C31.611 15 28.1311 15.0123 27.4546 15.0683C25.0129 15.2714 23.4935 15.656 21.8383 16.4802C20.5625 17.114 19.5564 17.8485 18.5635 18.878C16.7551 20.7557 15.6592 23.0658 15.2624 25.8115C15.0696 27.1446 15.0134 27.4165 15.0022 34.2255C14.9979 36.4953 15.0022 39.482 15.0022 43.4889C15.0022 55.3808 15.0151 58.8581 15.0722 59.5335C15.2695 61.9101 15.642 63.4054 16.4311 65.041C17.9392 68.1719 20.8195 70.5223 24.2126 71.3993C25.3873 71.7018 26.6849 71.8685 28.3506 71.9474C29.0566 71.9779 36.2503 71.9999 43.4484 71.9999C50.6466 71.9999 57.8449 71.9913 58.533 71.9562C60.462 71.8653 61.582 71.7149 62.8205 71.3948C66.2354 70.5136 69.0629 68.1982 70.6018 65.0236C71.3754 63.4272 71.7677 61.875 71.9452 59.6226C71.984 59.1315 72.0001 51.3011 72.0001 43.4813C72.0001 35.6602 71.9825 27.8445 71.9441 27.3534C71.7643 25.0644 71.3719 23.5251 70.5731 21.8986C69.9178 20.5668 69.19 19.5721 68.1336 18.5553C66.2481 16.7541 63.9423 15.6577 61.1945 15.2613C59.8631 15.0687 59.5981 15.0118 52.7855 15H43.5093Z" fill="url(#paint2_radial_224_2)"/>
<path d="M43.5093 15C31.611 15 28.1311 15.0123 27.4546 15.0683C25.0129 15.2714 23.4935 15.656 21.8383 16.4802C20.5625 17.114 19.5564 17.8485 18.5635 18.878C16.7551 20.7557 15.6592 23.0658 15.2624 25.8115C15.0696 27.1446 15.0134 27.4165 15.0022 34.2255C14.9979 36.4953 15.0022 39.482 15.0022 43.4889C15.0022 55.3808 15.0151 58.8581 15.0722 59.5335C15.2695 61.9101 15.642 63.4054 16.4311 65.041C17.9392 68.1719 20.8195 70.5223 24.2126 71.3993C25.3873 71.7018 26.6849 71.8685 28.3506 71.9474C29.0566 71.9779 36.2503 71.9999 43.4484 71.9999C50.6466 71.9999 57.8449 71.9913 58.533 71.9562C60.462 71.8653 61.582 71.7149 62.8205 71.3948C66.2354 70.5136 69.0629 68.1982 70.6018 65.0236C71.3754 63.4272 71.7677 61.875 71.9452 59.6226C71.984 59.1315 72.0001 51.3011 72.0001 43.4813C72.0001 35.6602 71.9825 27.8445 71.9441 27.3534C71.7643 25.0644 71.3719 23.5251 70.5731 21.8986C69.9178 20.5668 69.19 19.5721 68.1336 18.5553C66.2481 16.7541 63.9423 15.6577 61.1945 15.2613C59.8631 15.0687 59.5981 15.0118 52.7855 15H43.5093Z" fill="url(#paint3_radial_224_2)"/>
<path d="M43.5115 22.3188C37.756 22.3188 37.0337 22.3441 34.7731 22.4468C32.5169 22.55 30.977 22.907 29.6294 23.4307C28.2356 23.9714 27.0531 24.6951 25.8751 25.8726C24.6962 27.0498 23.9722 28.2312 23.4291 29.6238C22.9036 30.9706 22.546 32.5099 22.4445 34.7636C22.3433 37.0224 22.3168 37.7447 22.3168 43.4961C22.3168 49.2476 22.3426 49.9671 22.445 52.2259C22.5486 54.4804 22.906 56.0195 23.4295 57.3659C23.9713 58.7587 24.6954 59.9404 25.8738 61.1173C27.0513 62.2953 28.2336 63.0206 29.6266 63.5616C30.9752 64.0853 32.5156 64.4423 34.7712 64.5455C37.0319 64.6482 37.7538 64.6734 43.5091 64.6734C49.2651 64.6734 49.9851 64.6482 52.2458 64.5455C54.502 64.4421 56.0439 64.0853 57.3923 63.5616C58.7857 63.0208 59.9663 62.2953 61.1438 61.1173C62.3227 59.9404 63.0468 58.7587 63.5899 57.3664C64.1108 56.0195 64.4684 54.48 64.5744 52.2263C64.6761 49.9675 64.7024 49.2476 64.7024 43.4961C64.7024 37.7447 64.6761 37.023 64.5744 34.764C64.4684 32.5095 64.1108 30.9706 63.5899 29.6242C63.0468 28.2312 62.3227 27.0498 61.1438 25.8726C59.965 24.6946 58.7861 23.971 57.391 23.4307C56.0398 22.907 54.4988 22.55 52.2428 22.4468C49.9823 22.3441 49.2625 22.3188 43.505 22.3188H43.5115ZM41.6105 26.1352C42.1747 26.1342 42.8042 26.1352 43.5117 26.1352C49.1703 26.1352 49.8409 26.1555 52.0754 26.257C54.1416 26.3513 55.2632 26.6964 56.0103 26.9862C56.9991 27.3701 57.7045 27.829 58.4458 28.5701C59.1875 29.3112 59.6466 30.0171 60.0316 31.0055C60.3217 31.7509 60.6673 32.8716 60.7614 34.9365C60.8629 37.1689 60.8851 37.8395 60.8851 43.4914C60.8851 49.1429 60.8629 49.8135 60.7614 52.046C60.6669 54.1107 60.3217 55.2314 60.0316 55.977C59.6474 56.9652 59.1875 57.6691 58.4458 58.4097C57.704 59.1508 56.9998 59.6097 56.0103 59.9936C55.264 60.2848 54.1416 60.6291 52.0754 60.7235C49.8414 60.8247 49.1703 60.8469 43.5117 60.8469C37.8527 60.8469 37.1821 60.8249 34.9478 60.7235C32.8816 60.628 31.7601 60.2831 31.0127 59.9931C30.0237 59.6095 29.3173 59.1506 28.5755 58.4093C27.8336 57.6682 27.3745 56.9639 26.9895 55.9753C26.6993 55.2297 26.3538 54.109 26.2596 52.0443C26.1582 49.8118 26.1377 49.1411 26.1377 43.486C26.1377 37.8309 26.1582 37.1637 26.2596 34.9312C26.3542 32.8665 26.6993 31.7458 26.9895 30.9993C27.3736 30.0111 27.8336 29.3051 28.5755 28.5638C29.3173 27.8227 30.0237 27.3639 31.0127 26.9791C31.7596 26.688 32.8816 26.3438 34.9478 26.2488C36.9029 26.1607 37.6606 26.1342 41.6105 26.1299V26.1352ZM54.8243 29.6515C53.4204 29.6515 52.2811 30.7884 52.2811 32.1919C52.2811 33.5948 53.4204 34.7332 54.8243 34.7332C56.2283 34.7332 57.3675 33.5948 57.3675 32.1919C57.3675 30.7888 56.2283 29.6505 54.8243 29.6505V29.6515ZM43.5115 32.6206C37.5009 32.6206 32.6278 37.4901 32.6278 43.4961C32.6278 49.502 37.5009 54.3693 43.5115 54.3693C49.5219 54.3693 54.393 49.502 54.393 43.4961C54.393 37.4901 49.5214 32.6206 43.5111 32.6206H43.5115ZM43.5115 36.437C47.4128 36.437 50.5758 39.5974 50.5758 43.4961C50.5758 47.3944 47.4128 50.5552 43.5115 50.5552C39.6098 50.5552 36.447 47.3944 36.447 43.4961C36.447 39.5972 39.6096 36.437 43.5115 36.437Z" fill="white"/>
</g>
<defs>
<radialGradient id="paint0_radial_224_2" cx="0" cy="0" r="1" gradientUnits="userSpaceOnUse" gradientTransform="translate(70.1595 41.7165) rotate(164.25) scale(36.4198 26.2387)">
<stop stop-color="#FF005F"/>
<stop offset="1" stop-color="#FC01D8"/>
</radialGradient>
<radialGradient id="paint1_radial_224_2" cx="0" cy="0" r="1" gradientUnits="userSpaceOnUse" gradientTransform="translate(30.1404 76.3902) rotate(-90) scale(45.4985 48.2729)">
<stop stop-color="#FFCC00"/>
<stop offset="0.124161" stop-color="#FFCC00"/>
<stop offset="0.567196" stop-color="#FE4A05"/>
<stop offset="0.694203" stop-color="#FF0F3F"/>
<stop offset="1" stop-color="#FE0657" stop-opacity="0"/>
</radialGradient>
<radialGradient id="paint2_radial_224_2" cx="0" cy="0" r="1" gradientUnits="userSpaceOnUse" gradientTransform="translate(44.9404 71.1962) rotate(-59.8703) scale(18.814 24.4937)">
<stop stop-color="#FFCC00"/>
<stop offset="1" stop-color="#FFCC00" stop-opacity="0"/>
</radialGradient>
<radialGradient id="paint3_radial_224_2" cx="0" cy="0" r="1" gradientUnits="userSpaceOnUse" gradientTransform="translate(22.7339 17.3211) rotate(164.274) scale(36.0158 12.2706)">
<stop stop-color="#780CFF"/>
<stop offset="1" stop-color="#820BFF" stop-opacity="0"/>
</radialGradient>
<clipPath id="clip0_224_2">
<rect width="57" height="57" fill="white" transform="translate(15 15)"/>
</clipPath>
</defs>
</svg>
