<svg width="69" height="69" viewBox="0 0 69 69" fill="none" xmlns="http://www.w3.org/2000/svg">
<rect width="69" height="69" rx="10" fill="#EEB94D"/>
<g clip-path="url(#clip0_221_16)">
<rect width="43" height="57" transform="translate(13 6)" fill="#EEB94D"/>
<mask id="mask0_221_16" style="mask-type:luminance" maskUnits="userSpaceOnUse" x="13" y="6" width="43" height="58">
<path d="M56 6H13V63.0013H56V6Z" fill="white"/>
</mask>
<g mask="url(#mask0_221_16)">
<path fill-rule="evenodd" clip-rule="evenodd" d="M23.8582 61.759C23.8582 61.759 32.9872 64.6804 46.1432 61.5587L47.6617 39.4569L41.8988 31.0647L26.7268 30.5444L21.8743 38.9432V49.8692L23.8582 61.759Z" fill="#EEB94D"/>
<path fill-rule="evenodd" clip-rule="evenodd" d="M34.5005 10.1558C32.9167 10.1793 31.3385 10.3535 29.7869 10.676C28.4873 11.003 27.2465 11.5341 26.1096 12.2499C24.9915 11.5203 23.6434 11.2418 22.332 11.4695C21.8655 11.6416 21.4401 11.9113 21.0837 12.2611C20.7273 12.6109 20.4479 13.0329 20.2638 13.4995C20.0797 13.966 19.995 14.4666 20.0153 14.9685C20.0356 15.4705 20.1604 15.9624 20.3815 16.4122C20.8001 17.1388 21.4675 17.6849 22.2574 17.9471C20.5229 27.5958 10.5338 50.6822 13.9616 57.1116C15.2116 59.4676 17.284 61.2683 19.7749 62.1629C22.2657 63.0574 24.9966 62.9816 27.4352 61.9503C31.2925 60.3374 31.1897 54.4061 28.9267 52.9493C27.5278 52.0479 25.432 51.7371 23.7399 51.0087L22.926 50.8214C24.1503 47.2624 25.1956 43.6431 26.0582 39.9773C25.5185 39.8006 25.0612 39.4306 24.7724 38.9367C24.6208 38.6283 24.5352 38.2909 24.5213 37.9468C24.5074 37.6026 24.5654 37.2593 24.6916 36.9393C24.8178 36.6194 25.0094 36.33 25.2537 36.0901C25.4981 35.8502 25.7897 35.6651 26.1096 35.5471C27.008 35.39 27.932 35.5793 28.6991 36.0777C29.4788 35.587 30.3295 35.2228 31.2205 34.9982C32.2841 34.7763 33.3659 34.6561 34.4517 34.6392C35.5366 34.6567 36.6176 34.7773 37.6802 34.9995C38.5712 35.2241 39.422 35.5883 40.2016 36.079C40.9687 35.5805 41.8928 35.3912 42.7912 35.5484C43.1111 35.6664 43.4027 35.8515 43.6471 36.0914C43.8914 36.3313 44.0829 36.6207 44.2092 36.9406C44.3354 37.2606 44.3934 37.6039 44.3795 37.9481C44.3656 38.2922 44.28 38.6296 44.1284 38.938C43.8395 39.4319 43.3823 39.8019 42.8426 39.9786C43.708 43.6549 44.7564 47.2846 45.9837 50.8539L45.2611 51.01C43.3749 51.8216 41.6867 51.9127 40.0743 52.9506C37.8114 54.4074 37.7085 60.3387 41.5658 61.9516C44.0045 62.9824 46.7352 63.0578 49.2257 62.1631C51.7163 61.2683 53.7884 59.4675 55.0381 57.1116C58.4647 50.6822 48.4807 27.5958 46.7411 17.9471C47.5291 17.6878 48.1963 17.1461 48.617 16.4239C48.8381 15.9741 48.9629 15.4822 48.9832 14.9802C49.0035 14.4783 48.9188 13.9777 48.7347 13.5112C48.5506 13.0446 48.2712 12.6226 47.9148 12.2728C47.5584 11.923 47.133 11.6533 46.6665 11.4812C45.3551 11.2535 44.007 11.532 42.8889 12.2616C41.7535 11.5419 40.5135 11.0069 39.2142 10.676C37.6626 10.3535 36.0844 10.1793 34.5005 10.1558Z" fill="white"/>
<path d="M34.5005 10.1558C32.9167 10.1793 31.3385 10.3535 29.7869 10.676C28.4873 11.003 27.2465 11.5341 26.1096 12.2499C24.9915 11.5203 23.6434 11.2418 22.332 11.4695C21.8655 11.6416 21.4401 11.9113 21.0837 12.2611C20.7273 12.6109 20.4479 13.0329 20.2638 13.4995C20.0797 13.966 19.995 14.4666 20.0153 14.9685C20.0356 15.4705 20.1604 15.9624 20.3815 16.4122C20.8001 17.1388 21.4675 17.6849 22.2574 17.9471C20.5229 27.5958 10.5338 50.6822 13.9616 57.1116C15.2116 59.4676 17.284 61.2683 19.7749 62.1629C22.2657 63.0574 24.9966 62.9816 27.4352 61.9503C31.2925 60.3374 31.1897 54.4061 28.9267 52.9493C27.5278 52.0479 25.432 51.7371 23.7399 51.0087L22.926 50.8214C24.1503 47.2624 25.1956 43.6431 26.0582 39.9773C25.5185 39.8006 25.0612 39.4306 24.7724 38.9367C24.6208 38.6283 24.5352 38.2909 24.5213 37.9468C24.5074 37.6026 24.5654 37.2593 24.6916 36.9393C24.8178 36.6194 25.0094 36.33 25.2537 36.0901C25.4981 35.8502 25.7897 35.6651 26.1096 35.5471C27.008 35.39 27.932 35.5793 28.6991 36.0777C29.4788 35.587 30.3295 35.2228 31.2205 34.9982C32.2841 34.7763 33.3659 34.6561 34.4517 34.6392C35.5366 34.6567 36.6176 34.7773 37.6802 34.9995C38.5712 35.2241 39.422 35.5883 40.2016 36.079C40.9687 35.5805 41.8928 35.3912 42.7912 35.5484C43.1111 35.6664 43.4027 35.8515 43.6471 36.0914C43.8914 36.3313 44.0829 36.6207 44.2092 36.9406C44.3354 37.2606 44.3934 37.6039 44.3795 37.9481C44.3656 38.2922 44.28 38.6296 44.1284 38.938C43.8395 39.4319 43.3823 39.8019 42.8426 39.9786C43.708 43.6549 44.7564 47.2846 45.9837 50.8539L45.2611 51.01C43.3749 51.8216 41.6867 51.9127 40.0743 52.9506C37.8114 54.4074 37.7085 60.3387 41.5658 61.9516C44.0045 62.9824 46.7352 63.0578 49.2257 62.1631C51.7163 61.2683 53.7884 59.4675 55.0381 57.1116C58.4647 50.6822 48.4807 27.5958 46.7411 17.9471C47.5291 17.6878 48.1963 17.1461 48.617 16.4239C48.8381 15.9741 48.9629 15.4822 48.9832 14.9802C49.0035 14.4783 48.9188 13.9777 48.7347 13.5112C48.5506 13.0446 48.2712 12.6226 47.9148 12.2728C47.5584 11.923 47.133 11.6533 46.6665 11.4812C45.3551 11.2535 44.007 11.532 42.8889 12.2616C41.7535 11.5419 40.5135 11.0069 39.2142 10.676C37.6626 10.3535 36.0844 10.1793 34.5005 10.1558Z" stroke="white" stroke-miterlimit="10"/>
<path fill-rule="evenodd" clip-rule="evenodd" d="M39.3465 40.1255C39.8544 40.1255 40.2645 40.7511 40.2645 41.5238C40.2645 42.2964 39.8531 42.922 39.3465 42.922C38.8399 42.922 38.4285 42.2964 38.4285 41.5238C38.4285 40.7511 38.8399 40.1255 39.3465 40.1255Z" fill="white"/>
<path fill-rule="evenodd" clip-rule="evenodd" d="M29.5516 40.1255C30.0595 40.1255 30.4696 40.7511 30.4696 41.5238C30.4696 42.2964 30.0582 42.922 29.5516 42.922C29.045 42.922 28.6335 42.2964 28.6335 41.5238C28.6335 40.7511 29.045 40.1255 29.5516 40.1255Z" fill="white"/>
<path fill-rule="evenodd" clip-rule="evenodd" d="M34.4504 40.1592C34.99 40.1351 35.5259 40.2596 36.001 40.5195C36.5847 40.9266 36.5153 41.5471 36.0087 41.5328C35.5021 41.5184 35.1897 41.4872 35.0302 41.9399C35.0138 42.0835 34.9458 42.2159 34.8391 42.3121C34.7324 42.4083 34.5945 42.4614 34.4516 42.4614C34.3088 42.4614 34.1709 42.4083 34.0642 42.3121C33.9575 42.2159 33.8895 42.0835 33.873 41.9399C33.7136 41.4872 33.4025 41.5171 32.8946 41.5328C32.3867 41.5484 32.3186 40.9266 32.9023 40.5195C33.3774 40.2596 33.9133 40.1351 34.4529 40.1592" fill="white"/>
<path fill-rule="evenodd" clip-rule="evenodd" d="M34.5005 17.9262C35.2875 17.889 36.0696 18.0689 36.7634 18.4465C37.6159 19.0396 37.5156 19.9462 36.775 19.9228C36.0344 19.8994 35.5805 19.8564 35.3478 20.5159C35.2804 20.7074 35.1682 20.8797 35.0209 21.018C34.8737 21.1564 34.6956 21.2567 34.5018 21.3106C34.308 21.2567 34.1299 21.1564 33.9826 21.018C33.8353 20.8797 33.7232 20.7074 33.6557 20.5159C33.423 19.8551 32.9704 19.8994 32.2285 19.9228C31.4866 19.9462 31.3876 19.0396 32.2401 18.4465C32.9339 18.0689 33.7161 17.889 34.5031 17.9262" fill="#EEB94D"/>
<path fill-rule="evenodd" clip-rule="evenodd" d="M41.0644 17.1382C40.5321 17.1382 40.1001 17.8276 40.1001 18.6795C40.1001 19.5315 40.5321 20.2209 41.0644 20.2209C41.5967 20.2209 42.0288 19.5302 42.0288 18.6795C42.0288 17.8289 41.5967 17.1382 41.0644 17.1382Z" fill="#EEB94D"/>
<path fill-rule="evenodd" clip-rule="evenodd" d="M27.9353 17.1382C28.4676 17.1382 28.8996 17.8276 28.8996 18.6795C28.8996 19.5315 28.4676 20.2209 27.9353 20.2209C27.403 20.2209 26.9709 19.5302 26.9709 18.6795C26.9709 17.8289 27.403 17.1382 27.9353 17.1382Z" fill="#EEB94D"/>
</g>
</g>
<defs>
<clipPath id="clip0_221_16">
<rect width="43" height="57" fill="white" transform="translate(13 6)"/>
</clipPath>
</defs>
</svg>
